<?xml version="1.0" encoding="UTF-8" standalone="no"?>
<svg
   xmlns:dc="http://purl.org/dc/elements/1.1/"
   xmlns:cc="http://creativecommons.org/ns#"
   xmlns:rdf="http://www.w3.org/1999/02/22-rdf-syntax-ns#"
   xmlns:svg="http://www.w3.org/2000/svg"
   xmlns="http://www.w3.org/2000/svg"
   xmlns:sodipodi="http://sodipodi.sourceforge.net/DTD/sodipodi-0.dtd"
   xmlns:inkscape="http://www.inkscape.org/namespaces/inkscape"
   version="1.1"
   id="Capa_1"
   x="0px"
   y="0px"
   viewBox="0 0 186.489 186.489"
   style="enable-background:new 0 0 186.489 186.489;"
   xml:space="preserve"
   sodipodi:docname="cooling-fan-svgrepo-com.svg"
   inkscape:version="1.0.1 (3bc2e813f5, 2020-09-07)"><metadata
   id="metadata39"><rdf:RDF><cc:Work
       rdf:about=""><dc:format>image/svg+xml</dc:format><dc:type
         rdf:resource="http://purl.org/dc/dcmitype/StillImage" /></cc:Work></rdf:RDF></metadata><defs
   id="defs37" /><sodipodi:namedview
   pagecolor="#ffffff"
   bordercolor="#666666"
   borderopacity="1"
   objecttolerance="10"
   gridtolerance="10"
   guidetolerance="10"
   inkscape:pageopacity="0"
   inkscape:pageshadow="2"
   inkscape:window-width="1920"
   inkscape:window-height="1025"
   id="namedview35"
   showgrid="false"
   inkscape:zoom="3.8340063"
   inkscape:cx="50.078165"
   inkscape:cy="82.811548"
   inkscape:window-x="0"
   inkscape:window-y="0"
   inkscape:window-maximized="1"
   inkscape:current-layer="Capa_1" />
<path
   d="M183.989,186.489c1.381,0,2.5-1.119,2.5-2.5V2.5c0-1.381-1.119-2.5-2.5-2.5H2.5c-1.381,0-2.5,1.119-2.5,2.5v181.489  c0,1.381,1.119,2.5,2.5,2.5H183.989z M166.954,14.203c2.945,0,5.332,2.388,5.332,5.333s-2.387,5.333-5.332,5.333  s-5.334-2.388-5.334-5.333S164.008,14.203,166.954,14.203z M93.245,18.245c41.422,0,75,33.578,75,75s-33.578,75-75,75  s-75-33.578-75-75S51.823,18.245,93.245,18.245z M19.536,161.62c2.945,0,5.334,2.388,5.334,5.333c0,2.945-2.389,5.333-5.334,5.333  s-5.332-2.388-5.332-5.333C14.204,164.008,16.59,161.62,19.536,161.62z M47.237,91.887c-2.098,1.13-4.203,2.253-6.273,3.37  c-2.056,1.169-4.075,2.322-6.03,3.442c-1.967,1.117-3.87,2.203-5.648,3.318c-0.139,0.083-0.27,0.16-0.408,0.248  c2.262,16.32,10.579,30.704,22.625,40.801c0.166-0.226,0.341-0.468,0.518-0.708c0.749-1.029,1.59-2.184,2.505-3.448  c0.986-1.269,2.042-2.64,3.17-4.094c1.096-1.467,2.349-2.983,3.643-4.551c1.296-1.582,2.63-3.208,3.988-4.868  c1.412-1.621,2.856-3.282,4.293-4.939c0.002-0.002,0.012-0.015,0.022-0.02c-0.101,1.605-0.201,3.231-0.305,4.888  c-0.139,2.336-0.177,4.705-0.267,7.089c-0.076,2.381-0.152,4.769-0.229,7.111c-0.012,2.366-0.022,4.696-0.034,6.949  c-0.014,2.262-0.024,4.45,0.052,6.547c0,0.171,0.011,0.322,0.011,0.482c7.528,3.058,15.754,4.74,24.374,4.74  c7.833,0,15.334-1.379,22.282-3.917c-0.114-0.266-0.231-0.545-0.359-0.824c-0.518-1.163-1.103-2.47-1.737-3.899  c-0.607-1.484-1.269-3.086-1.957-4.781c-0.722-1.694-1.41-3.534-2.121-5.432c-0.722-1.912-1.468-3.886-2.219-5.89  c-0.709-2.04-1.42-4.12-2.133-6.19c-0.002-0.007-0.002-0.018-0.011-0.031c1.343,0.9,2.701,1.795,4.087,2.717  c1.943,1.281,3.983,2.505,6.002,3.771c2.021,1.255,4.053,2.518,6.046,3.756c2.045,1.188,4.051,2.363,6.004,3.498  c1.952,1.135,3.836,2.241,5.689,3.225c0.148,0.083,0.278,0.151,0.417,0.233c12.418-9.711,21.203-23.821,24.03-39.996  c-0.28-0.031-0.58-0.064-0.874-0.088c-1.26-0.138-2.682-0.286-4.241-0.451c-1.588-0.215-3.312-0.445-5.128-0.703  c-1.817-0.21-3.757-0.536-5.764-0.871c-2.016-0.335-4.098-0.674-6.207-1.023c-2.121-0.413-4.268-0.836-6.426-1.254  c-0.011,0-0.014,0-0.026,0c1.436-0.72,2.898-1.447,4.392-2.19c2.085-1.036,4.154-2.191,6.264-3.296  c2.105-1.135,4.203-2.258,6.279-3.371c2.049-1.168,4.076-2.323,6.031-3.439c1.957-1.123,3.86-2.203,5.64-3.32  c0.14-0.083,0.276-0.166,0.406-0.254c-2.262-16.314-10.577-30.704-22.623-40.796c-0.166,0.223-0.341,0.47-0.511,0.704  c-0.749,1.031-1.597,2.185-2.514,3.448c-0.986,1.269-2.04,2.641-3.16,4.096c-1.106,1.465-2.358,2.981-3.652,4.555  c-1.287,1.577-2.63,3.207-3.986,4.87c-1.414,1.62-2.85,3.275-4.295,4.939c-0.01,0-0.012,0.007-0.014,0.018  c0.094-1.606,0.195-3.237,0.305-4.889c0.14-2.336,0.178-4.71,0.267-7.088c0.076-2.382,0.152-4.768,0.22-7.115  c0.014-2.369,0.023-4.692,0.034-6.946c0.014-2.265,0.024-4.455-0.05-6.551c0-0.171-0.011-0.317-0.013-0.483  c-7.528-3.057-15.752-4.74-24.374-4.74c-7.831,0-15.334,1.384-22.282,3.916c0.117,0.267,0.233,0.546,0.368,0.824  c0.511,1.164,1.094,2.471,1.729,3.904c0.609,1.479,1.269,3.081,1.966,4.782c0.715,1.693,1.401,3.528,2.121,5.431  c0.722,1.918,1.462,3.881,2.22,5.885c0.699,2.045,1.412,4.12,2.125,6.195c0,0.008,0.009,0.013,0.011,0.027  c-1.345-0.895-2.703-1.795-4.087-2.712c-1.945-1.287-3.976-2.511-6.004-3.776c-2.021-1.251-4.051-2.513-6.044-3.75  c-2.044-1.192-4.053-2.367-6.003-3.499c-1.946-1.141-3.839-2.241-5.69-3.23c-0.15-0.081-0.278-0.146-0.419-0.229  c-12.416,9.707-21.203,23.823-24.021,39.997c0.28,0.027,0.571,0.063,0.865,0.084c1.26,0.138,2.69,0.292,4.251,0.457  c1.587,0.209,3.302,0.444,5.12,0.696c1.825,0.216,3.755,0.546,5.764,0.877c2.016,0.332,4.098,0.672,6.208,1.022  c2.118,0.412,4.275,0.831,6.423,1.251c0.011,0,0.022,0,0.026,0c-1.436,0.717-2.896,1.446-4.383,2.188  C51.416,89.627,49.344,90.777,47.237,91.887z M93.245,76.245c9.389,0,17,7.611,17,17s-7.611,17-17,17s-17-7.611-17-17  S83.856,76.245,93.245,76.245z"
   id="path2"
   style="fill:#ffffff;fill-opacity:1" />
<g
   id="g4">
</g>
<g
   id="g6">
</g>
<g
   id="g8">
</g>
<g
   id="g10">
</g>
<g
   id="g12">
</g>
<g
   id="g14">
</g>
<g
   id="g16">
</g>
<g
   id="g18">
</g>
<g
   id="g20">
</g>
<g
   id="g22">
</g>
<g
   id="g24">
</g>
<g
   id="g26">
</g>
<g
   id="g28">
</g>
<g
   id="g30">
</g>
<g
   id="g32">
</g>
</svg>
